<?xml version="1.0" encoding="UTF-8"?>
<svg width="86px" height="86px" viewBox="0 0 86 86" version="1.1" xmlns="http://www.w3.org/2000/svg" xmlns:xlink="http://www.w3.org/1999/xlink">
    <title>pictograms/cloud/partners of the IBM cloud marketplace</title>
    <g id="Home-Page" stroke="none" stroke-width="1" fill="none" fill-rule="evenodd">
        <g id="Home-page_hi-fi_v2" transform="translate(-16.000000, -2184.000000)" fill="#FFFFFF">
            <g id="pictograms/cloud/partners-of-the-IBM-cloud-marketplace" transform="translate(14.000000, 2182.000000)">
                <path d="M51.440675,34.621675 C50.728425,37.278175 49.562425,39.731175 48.049925,41.933925 L48.049925,26.291925 C48.049925,25.744675 47.604425,25.301925 47.059925,25.301925 C46.512675,25.301925 46.069925,25.744675 46.069925,26.291925 L46.069925,44.452925 C44.439175,46.243175 42.530675,47.799675 40.371925,49.045425 C36.046175,51.542425 31.252925,52.510425 26.616425,52.136425 L40.190425,44.298925 C40.663425,44.026675 40.825675,43.421675 40.550675,42.945925 C40.275675,42.472925 39.670675,42.305175 39.197675,42.585675 L23.489675,51.655175 C17.161925,50.285675 11.406175,46.383425 7.924675,40.349925 C7.608425,39.802675 7.336175,39.241675 7.069425,38.680675 L20.632425,46.509925 C20.789175,46.600675 20.959675,46.644675 21.127425,46.644675 C21.468425,46.644675 21.801175,46.465925 21.985425,46.149675 C22.257675,45.676675 22.095425,45.068925 21.622425,44.796675 L5.878675,35.707925 C3.620925,28.648675 4.855675,21.006425 8.942175,15.036175 L8.942175,30.667175 C8.942175,31.211675 9.387675,31.654425 9.932175,31.654425 C10.479425,31.654425 10.922175,31.211675 10.922175,30.667175 L10.922175,12.500675 C12.533675,10.726925 14.433925,9.162175 16.617425,7.902675 C20.349175,5.746675 24.427425,4.723675 28.456175,4.723675 C29.080425,4.723675 29.699175,4.795175 30.317925,4.844675 L16.801675,12.649175 C16.328675,12.921425 16.166425,13.526425 16.441425,13.999425 C16.622925,14.318425 16.955675,14.494425 17.299425,14.494425 C17.467175,14.494425 17.637675,14.453175 17.794425,14.362425 L33.480425,5.303925 C39.813675,6.670675 45.580425,10.556425 49.067425,16.595425 C49.383675,17.142675 49.658675,17.706425 49.928175,18.270175 L36.370675,10.440925 C35.894925,10.168675 35.287175,10.330925 35.017675,10.803925 C34.742675,11.276925 34.904925,11.881925 35.377925,12.156925 L51.116175,21.242925 C52.499425,25.543925 52.639675,30.152925 51.440675,34.621675 M39.440775,73.79075 C42.504275,70.7245 47.498275,70.7245 50.561775,73.79075 C52.046775,75.27575 52.866275,77.253 52.866275,79.354 C52.866275,81.455 52.046775,83.4295 50.561775,84.9145 C49.076775,86.3995 47.102275,87.219 45.001275,87.219 C42.900275,87.219 40.925775,86.3995 39.440775,84.9145 C37.953025,83.4295 37.136275,81.455 37.136275,79.354 C37.136275,77.253 37.953025,75.27575 39.440775,73.79075 Z M45.001275,73.47175 C43.494275,73.47175 41.987275,74.04375 40.840525,75.1905 C39.726775,76.3015 39.116275,77.781 39.116275,79.354 C39.116275,80.927 39.726775,82.40375 40.840525,83.51475 C43.062525,85.7395 46.937275,85.7395 49.162025,83.51475 C50.273025,82.40375 50.886275,80.927 50.886275,79.354 C50.886275,77.781 50.273025,76.3015 49.162025,75.1905 C48.015275,74.04375 46.508275,73.47175 45.001275,73.47175 Z M20.694025,61.4207 C25.030775,61.4207 28.559025,64.94895 28.559025,69.2857 C28.559025,73.62245 25.030775,77.1507 20.694025,77.1507 C16.357275,77.1507 12.829025,73.62245 12.829025,69.2857 C12.829025,64.94895 16.357275,61.4207 20.694025,61.4207 Z M69.3077,61.4207 C73.64445,61.4207 77.1727,64.94895 77.1727,69.2857 C77.1727,73.62245 73.64445,77.1507 69.3077,77.1507 C64.97095,77.1507 61.4427,73.62245 61.4427,69.2857 C61.4427,64.94895 64.97095,61.4207 69.3077,61.4207 Z M20.694025,63.4007 C17.449025,63.4007 14.809025,66.0407 14.809025,69.2857 C14.809025,72.5307 17.449025,75.1707 20.694025,75.1707 C23.939025,75.1707 26.579025,72.5307 26.579025,69.2857 C26.579025,66.0407 23.939025,63.4007 20.694025,63.4007 Z M69.3077,63.4007 C66.0627,63.4007 63.4227,66.0407 63.4227,69.2857 C63.4227,72.5307 66.0627,75.1707 69.3077,75.1707 C72.5527,75.1707 75.1927,72.5307 75.1927,69.2857 C75.1927,66.0407 72.5527,63.4007 69.3077,63.4007 Z M15.627425,6.186675 C21.094425,3.032425 27.383675,2.028675 33.516175,3.260675 C33.573925,3.268925 33.628925,3.279925 33.683925,3.296425 C34.176175,3.398175 34.668425,3.483425 35.157925,3.615425 C41.796425,5.394675 47.345925,9.651675 50.783425,15.605425 C56.412675,25.354175 54.894675,37.280925 47.898675,45.341175 C47.840925,45.440175 47.772175,45.528175 47.681425,45.599675 C45.904925,47.596175 43.801175,49.353425 41.361925,50.761425 C37.399175,53.049425 32.996425,54.218175 28.535925,54.218175 C26.916175,54.218175 25.293675,54.009175 23.676675,53.698425 C23.657425,53.698425 23.640925,53.712175 23.624425,53.712175 C23.486925,53.712175 23.360425,53.662675 23.236675,53.610425 C22.769175,53.511425 22.298925,53.456425 21.834175,53.329925 C15.195675,51.550675 9.646175,47.293675 6.208675,41.339925 C2.771175,35.386175 1.858175,28.453425 3.637425,21.812175 C4.679675,17.926425 6.590925,14.428425 9.175925,11.494175 C9.206175,11.455675 9.230925,11.417175 9.269425,11.384175 C11.076175,9.351925 13.201925,7.586425 15.627425,6.186675 Z M73.815775,39.41575 C76.879275,36.3495 81.873275,36.3495 84.936775,39.41575 C86.421775,40.90075 87.241275,42.878 87.241275,44.979 C87.241275,47.08 86.421775,49.0545 84.936775,50.5395 C83.451775,52.0245 81.477275,52.844 79.376275,52.844 C77.275275,52.844 75.300775,52.0245 73.815775,50.5395 C72.328025,49.0545 71.511275,47.07725 71.511275,44.979 C71.511275,42.878 72.328025,40.90075 73.815775,39.41575 Z M79.376275,39.09675 C77.869275,39.09675 76.362275,39.66875 75.215525,40.8155 C74.101775,41.9265 73.491275,43.406 73.491275,44.979 C73.491275,46.552 74.101775,48.02875 75.215525,49.13975 C77.437525,51.3645 81.312275,51.3645 83.537025,49.13975 C84.648025,48.02875 85.261275,46.552 85.261275,44.979 C85.261275,43.406 84.648025,41.9265 83.537025,40.8155 C82.390275,39.66875 80.883275,39.09675 79.376275,39.09675 Z M69.3077,12.8062 C73.64445,12.8062 77.1727,16.33445 77.1727,20.6712 C77.1727,25.00795 73.64445,28.5362 69.3077,28.5362 C64.97095,28.5362 61.4427,25.00795 61.4427,20.6712 C61.4427,16.33445 64.97095,12.8062 69.3077,12.8062 Z M69.3077,14.7862 C66.0627,14.7862 63.4227,17.4262 63.4227,20.6712 C63.4227,23.9162 66.0627,26.5562 69.3077,26.5562 C72.5527,26.5562 75.1927,23.9162 75.1927,20.6712 C75.1927,17.4262 72.5527,14.7862 69.3077,14.7862 Z" id="Fill-13"></path>
            </g>
        </g>
    </g>
</svg>