<?xml version="1.0" encoding="UTF-8"?>
<svg width="86px" height="86px" viewBox="0 0 86 86" version="1.1" xmlns="http://www.w3.org/2000/svg" xmlns:xlink="http://www.w3.org/1999/xlink">
    <title>pictograms/internet of things/solve02</title>
    <g id="Home-Page" stroke="none" stroke-width="1" fill="none" fill-rule="evenodd">
        <g id="Home-page_hi-fi_v2" transform="translate(-16.000000, -2304.000000)" fill="#FFFFFF">
            <g id="pictograms/internet-of-things/solve02" transform="translate(14.000000, 2302.000000)">
                <path d="M44.969375,36.3341 C49.729625,36.3341 53.604375,40.20885 53.604375,44.9691 C53.604375,49.7321 49.729625,53.6041 44.969375,53.6041 C40.209125,53.6041 36.334375,49.7321 36.334375,44.9691 C36.334375,40.20885 40.209125,36.3341 44.969375,36.3341 L44.969375,36.3341 Z M66.988625,55.5841 L75.623625,55.5841 L75.623625,68.36335 C75.623625,73.88535 71.135625,78.3761 65.613625,78.3761 L55.603625,78.3761 L55.603625,66.98835 C55.603625,66.44385 55.160875,66.0011 54.613625,66.0011 L46.003375,66.0011 L46.003375,55.4796 C51.035875,54.9846 55.006875,50.9971 55.482625,45.9591 L65.998625,45.9591 L65.998625,54.5941 C65.998625,55.14135 66.444125,55.5841 66.988625,55.5841 L66.988625,55.5841 Z M67.978625,53.6041 L85.248625,53.6041 L85.248625,36.3341 L67.978625,36.3341 L67.978625,53.6041 Z M36.353625,85.2511 L53.623625,85.2511 L53.623625,67.9811 L36.353625,67.9811 L36.353625,85.2511 Z M13.363625,85.2511 C8.603375,85.2511 4.728625,81.37635 4.728625,76.61335 C4.728625,71.8531 8.603375,67.97835 13.363625,67.97835 C18.126625,67.97835 21.998625,71.8531 21.998625,76.61335 C21.998625,81.37635 18.126625,85.2511 13.363625,85.2511 L13.363625,85.2511 Z M4.753375,4.7531 L22.023375,4.7531 L22.023375,12.3981 L21.638375,12.3981 L21.638375,14.3781 L22.023375,14.3781 L22.023375,22.0231 L4.753375,22.0231 L4.753375,4.7531 Z M67.978625,13.36335 C67.978625,8.6031 71.853375,4.72835 76.613625,4.72835 C81.376625,4.72835 85.248625,8.6031 85.248625,13.36335 C85.248625,18.12635 81.376625,22.0011 76.613625,22.0011 C71.853375,22.0011 67.978625,18.12635 67.978625,13.36335 L67.978625,13.36335 Z M76.613625,2.7511 C82.468375,2.7511 87.228625,7.51135 87.228625,13.36335 C87.228625,18.87985 82.988125,23.3706 77.603625,23.87935 L77.603625,23.87935 L77.603625,34.3541 L86.238625,34.3541 C86.785875,34.3541 87.228625,34.79685 87.228625,35.3441 L87.228625,35.3441 L87.228625,54.5941 C87.228625,55.14135 86.785875,55.5841 86.238625,55.5841 L86.238625,55.5841 L77.603625,55.5841 L77.603625,68.36335 C77.603625,74.9771 72.227375,80.35335 65.613625,80.35335 L65.613625,80.35335 L55.603625,80.35335 L55.603625,86.23835 C55.603625,86.7856 55.160875,87.22835 54.613625,87.22835 L54.613625,87.22835 L35.363625,87.22835 C34.819125,87.22835 34.373625,86.7856 34.373625,86.23835 L34.373625,86.23835 L34.373625,66.98835 C34.373625,66.44385 34.819125,66.0011 35.363625,66.0011 L35.363625,66.0011 L44.023375,66.0011 L44.023375,55.48785 C41.837125,55.2926 39.859875,54.4456 38.256625,53.12285 L38.256625,53.12285 L21.498125,69.8786 C23.024375,71.7156 23.978625,74.04485 23.978625,76.61335 C23.978625,82.4681 19.218375,87.22835 13.363625,87.22835 C7.511625,87.22835 2.748625,82.4681 2.748625,76.61335 C2.748625,70.76135 7.511625,66.0011 13.363625,66.0011 C15.932125,66.0011 18.261375,66.95535 20.101125,68.47885 L20.101125,68.47885 L36.851375,51.7286 C35.520375,50.1336 34.665125,48.1591 34.456125,45.97835 L34.456125,45.97835 L24.363625,45.97835 C17.752625,45.97835 12.373625,40.6021 12.373625,33.98835 L12.373625,33.98835 L12.373625,24.0031 L3.763375,24.0031 C3.216125,24.0031 2.773375,23.56035 2.773375,23.0131 L2.773375,23.0131 L2.773375,3.7631 C2.773375,3.2186 3.216125,2.7731 3.763375,2.7731 L3.763375,2.7731 L23.013375,2.7731 C23.560625,2.7731 24.003375,3.2186 24.003375,3.7631 L24.003375,3.7631 L24.003375,12.3981 L38.138375,12.3981 L38.138375,14.3781 L24.003375,14.3781 L24.003375,23.0131 C24.003375,23.56035 23.560625,24.0031 23.013375,24.0031 L23.013375,24.0031 L14.353625,24.0031 L14.353625,33.98835 C14.353625,39.51035 18.844375,44.0011 24.363625,44.0011 L24.363625,44.0011 L34.453375,44.0011 C34.951125,38.60835 39.447375,34.3541 44.969375,34.3541 C50.483125,34.3541 54.976625,38.59735 55.482625,43.9791 L55.482625,43.9791 L65.998625,43.9791 L65.998625,35.3441 C65.998625,34.79685 66.444125,34.3541 66.988625,34.3541 L66.988625,34.3541 L75.623625,34.3541 L75.623625,23.87935 C70.241875,23.3706 65.998625,18.87985 65.998625,13.36335 C65.998625,7.51135 70.761625,2.7511 76.613625,2.7511 Z M38.994175,2.8831 C39.299425,2.70435 39.678925,2.7071 39.984175,2.88035 L39.984175,2.88035 L56.484175,12.40635 C56.792175,12.5851 56.979175,12.91235 56.979175,13.26435 C56.979175,13.6191 56.792175,13.94635 56.484175,14.12235 L56.484175,14.12235 L39.984175,23.64835 C39.832925,23.73635 39.659675,23.7831 39.489175,23.7831 C39.318675,23.7831 39.148175,23.73635 38.994175,23.6511 C38.688925,23.47235 38.499175,23.1451 38.499175,22.7931 L38.499175,22.7931 L38.499175,3.73835 C38.499175,3.38635 38.688925,3.0591 38.994175,2.8831 Z M40.479175,5.45435 L40.479175,21.0771 L54.009175,13.26435 L40.479175,5.45435 Z" id="Fill-3"></path>
            </g>
        </g>
    </g>
</svg>