<?xml version="1.0" encoding="UTF-8"?>
<svg width="86px" height="86px" viewBox="0 0 86 86" version="1.1" xmlns="http://www.w3.org/2000/svg" xmlns:xlink="http://www.w3.org/1999/xlink">
    <title>pictograms/cloud/IBM cloud ecosystem</title>
    <g id="Home-Page" stroke="none" stroke-width="1" fill="none" fill-rule="evenodd">
        <g id="Home-page_hi-fi_v2" transform="translate(-16.000000, -1922.000000)" fill="#FFFFFF">
            <g id="pictograms/cloud/IBM-cloud-ecosystem" transform="translate(14.000000, 1920.000000)">
                <path d="M53.246325,63.21425 C50.702575,63.21425 48.376075,62.348 46.478575,60.93175 C48.714325,58.542 50.111325,55.35475 50.111325,51.82925 C50.111325,51.36175 50.020575,50.919 49.973825,50.4625 C53.854075,48.895 56.799325,45.5565 57.877325,41.4535 C61.848325,43.23 64.631325,47.20375 64.631325,51.82925 C64.631325,58.11025 59.524575,63.21425 53.246325,63.21425 M25.361325,51.82925 C25.361325,47.20375 28.144325,43.23 32.115325,41.4535 C33.193325,45.5565 36.138575,48.895 40.018825,50.4625 C39.972075,50.919 39.881325,51.36175 39.881325,51.82925 C39.881325,55.35475 41.278325,58.542 43.514075,60.93175 C41.616575,62.348 39.290075,63.21425 36.746325,63.21425 C30.468075,63.21425 25.361325,58.11025 25.361325,51.82925 M46.478575,42.7295 C48.376075,41.31325 50.702575,40.447 53.246325,40.447 C54.203325,40.447 55.119075,40.59825 56.010075,40.82375 C55.154825,44.23925 52.781575,47.04425 49.627325,48.45775 C49.055325,46.2825 47.969075,44.3245 46.478575,42.7295 M40.365325,48.45775 C37.211075,47.04425 34.837825,44.23925 33.982575,40.82375 C34.873575,40.59825 35.789325,40.447 36.746325,40.447 C39.290075,40.447 41.616575,41.31325 43.514075,42.7295 C42.023575,44.3245 40.937325,46.2825 40.365325,48.45775 M44.996325,49.46425 C44.039325,49.46425 43.123575,49.31025 42.232575,49.08475 C42.713825,47.15975 43.673575,45.42725 44.996325,44.0275 C46.319075,45.42725 47.278825,47.15975 47.760075,49.08475 C46.869075,49.31025 45.953325,49.46425 44.996325,49.46425 M48.131325,51.82925 C48.131325,54.85425 46.926825,57.5905 44.996325,59.631 C43.065825,57.5905 41.861325,54.85425 41.861325,51.82925 C41.861325,51.568 41.921825,51.3205 41.938325,51.05925 C42.925575,51.293 43.940325,51.447 44.996325,51.447 C46.052325,51.447 47.067075,51.293 48.054325,51.05925 C48.070825,51.3205 48.131325,51.568 48.131325,51.82925 M33.611325,38.07925 C33.611325,31.801 38.718075,26.697 44.996325,26.697 C51.274575,26.697 56.381325,31.801 56.381325,38.07925 C56.381325,38.34325 56.320825,38.59075 56.304325,38.852 C55.317075,38.61825 54.302325,38.46425 53.246325,38.46425 C50.116825,38.46425 47.276075,39.589 44.996325,41.39575 C42.716575,39.589 39.875825,38.46425 36.746325,38.46425 C35.690325,38.46425 34.675575,38.61825 33.688325,38.852 C33.671825,38.59075 33.611325,38.34325 33.611325,38.07925 M23.8766,8.3831 C31.8186,3.79335 40.82485,1.9976 49.77335,3.0371 C49.94385,3.00685 50.1116,3.03435 50.2711,3.0921 C52.1631,3.3341 54.0551,3.6586 55.92785,4.16185 C66.8261,7.08235 75.9341,14.07285 81.5771,23.8436 C82.4076,25.28185 83.11985,26.7641 83.76885,28.2656 C83.8266,28.36185 83.8706,28.46085 83.88985,28.57085 C87.5446,37.18935 88.25685,46.70985 85.7956,55.8976 C82.8751,66.7931 75.88735,75.90385 66.1166,81.5441 C59.60735,85.30335 52.3831,87.22285 45.0626,87.22285 C41.3941,87.22285 37.7036,86.73885 34.0626,85.76535 C23.16435,82.84485 14.05635,75.85435 8.41335,66.0836 C7.58285,64.64535 6.87335,63.1631 6.2216,61.6616 C6.1666,61.56535 6.1226,61.46635 6.1006,61.35635 C2.4486,52.73785 1.7336,43.21735 4.19485,34.0296 C7.11535,23.13135 14.10585,14.02335 23.8766,8.3831 Z M44.9306,4.68435 C37.95385,4.68435 31.0706,6.5131 24.8666,10.09635 C20.1806,12.80235 16.1711,16.34435 12.9866,20.5161 L12.9866,20.5161 L12.9866,55.9636 C12.9866,56.51085 12.54385,56.9536 11.9966,56.9536 C11.44935,56.9536 11.0066,56.51085 11.0066,55.9636 L11.0066,55.9636 L11.0066,23.37885 C8.84785,26.78885 7.18135,30.53435 6.10885,34.54385 C3.77135,43.2696 4.4396,52.3116 7.89085,60.50385 L7.89085,60.50385 L38.5176,78.18635 C38.9906,78.46135 39.15285,79.0636 38.8806,79.5366 C38.69635,79.8556 38.3636,80.03435 38.01985,80.03435 C37.8521,80.03435 37.6816,79.99035 37.5276,79.8996 L37.5276,79.8996 L9.3896,63.65535 C9.63985,64.13385 9.85985,64.62335 10.12935,65.0936 C15.5056,74.40785 24.18735,81.06835 34.5741,83.8541 C36.34235,84.32435 38.12435,84.63235 39.9091,84.86335 L39.9091,84.86335 L70.5276,67.18635 C70.99785,66.90585 71.6056,67.0736 71.8806,67.54935 C72.15285,68.02235 71.9906,68.6246 71.5176,68.8996 L71.5176,68.8996 L43.33835,85.1686 C50.8981,85.49585 58.41385,83.7056 65.1266,79.83085 C69.80985,77.12485 73.81935,73.58285 77.0066,69.4111 L77.0066,69.4111 L77.0066,33.9636 C77.0066,33.41635 77.44935,32.9736 77.9966,32.9736 C78.54385,32.9736 78.9866,33.41635 78.9866,33.9636 L78.9866,33.9636 L78.9866,66.54835 C81.14535,63.13835 82.8091,59.39285 83.88435,55.38335 C86.22185,46.6576 85.55085,37.6156 82.0996,29.42335 L82.0996,29.42335 L51.47285,11.74085 C50.99985,11.46585 50.8376,10.8636 51.1126,10.3906 C51.38485,9.91485 51.9926,9.74985 52.4656,10.0276 L52.4656,10.0276 L80.60085,26.27185 C80.3506,25.79335 80.13335,25.30385 79.8611,24.8336 C74.48485,15.51935 65.8031,8.85885 55.41635,6.0731 C53.6701,5.6056 51.9101,5.25635 50.1446,5.02535 L50.1446,5.02535 L19.4656,22.74085 C19.30885,22.8316 19.13835,22.8756 18.9706,22.8756 C18.6296,22.8756 18.2941,22.69685 18.1126,22.37785 C17.8376,21.90485 17.99985,21.29985 18.47285,21.0276 L18.47285,21.0276 L46.6796,4.7421 C46.0966,4.71735 45.5136,4.68435 44.9306,4.68435 Z M44.996325,24.71425 C52.366325,24.71425 58.361325,30.712 58.361325,38.07925 C58.361325,38.54675 58.270575,38.9895 58.223825,39.446 C63.129825,41.42875 66.611325,46.222 66.611325,51.82925 C66.611325,59.19925 60.616325,65.197 53.246325,65.197 C50.116825,65.197 47.276075,64.07225 44.996325,62.26275 C42.716575,64.07225 39.875825,65.197 36.746325,65.197 C29.376325,65.197 23.381325,59.19925 23.381325,51.82925 C23.381325,46.222 26.862825,41.42875 31.768825,39.446 C31.722075,38.9895 31.631325,38.54675 31.631325,38.07925 C31.631325,30.712 37.626325,24.71425 44.996325,24.71425 Z" id="Fill-4"></path>
            </g>
        </g>
    </g>
</svg>