<?xml version="1.0" encoding="UTF-8"?>
<svg width="88px" height="88px" viewBox="0 0 88 88" version="1.1" xmlns="http://www.w3.org/2000/svg" xmlns:xlink="http://www.w3.org/1999/xlink">
    <title>employee--insights</title>
    <g id="Home-Page" stroke="none" stroke-width="1" fill="none" fill-rule="evenodd">
        <g id="Home-page_hi-fi_v2" transform="translate(-16.000000, -2040.000000)">
            <g id="employee--insights" transform="translate(16.000000, 2040.000000)">
                <path d="M64.625,86.24 C52.7065,86.24 43.01,76.5435 43.01,64.625 C43.01,54.48575 50.02525,45.95525 59.45775,43.63425 C63.5415,39.52575 65.78825,34.089 65.78825,28.28925 L65.78825,28.05 C58.6465,26.94175 52.096,23.79575 46.739,18.9035 C40.0015,25.0525 31.328,28.446 22.187,28.49 C22.264,37.00675 27.33225,44.72875 35.1395,48.202 C35.52725,48.37525 35.761,48.77675 35.7225,49.1975 C35.684,49.621 35.37875,49.97025 34.96625,50.06925 C14.245,54.98075 3.74,66.8195 3.74,85.25 L1.76,85.25 C1.76,66.55275 11.9185,54.29875 31.96325,48.79325 C31.3995,48.46325 30.855,48.11125 30.32425,47.74 L16.5,47.74 C15.95275,47.74 15.51,47.29725 15.51,46.75 L15.51,30.25 C15.51,14.542 28.292,1.76 44,1.76 C59.71075,1.76 72.49,14.53925 72.49,30.25 L72.49,44.49225 C80.531,47.64375 86.24,55.48125 86.24,64.625 C86.24,67.61425 85.6295,70.46325 84.52675,73.05375 C85.6625,76.74975 86.24,80.84725 86.24,85.25 L84.26,85.25 C84.26,81.8455 83.9025,78.639 83.193,75.68275 C79.41725,81.9995 72.5065,86.24 64.625,86.24 Z M50.49,78.24025 C54.06225,81.95 59.07825,84.25725 64.625,84.25725 C70.17175,84.25725 75.18775,81.94725 78.76,78.24025 L78.76,67.375 L80.74275,67.375 L80.74275,75.83125 C82.962,72.65225 84.26,68.78575 84.26,64.625 C84.26,64.493 84.26,64.361 84.25725,64.229 C84.128,64.2345 83.996,64.24 83.864,64.24 C79.52725,64.24 75.999,60.71175 75.999,56.375 C75.999,54.2025 76.89275,52.15375 78.43825,50.6825 C74.888,47.168 70.00675,44.99 64.62775,44.99 C60.2855,44.99 56.265,46.409 53.009,48.80425 C56.3145,49.7365 58.74275,52.77525 58.74275,56.375 C58.74275,60.71175 55.2145,64.24 50.87775,64.24 C48.7135,64.24 46.65925,63.327 45.19625,61.8035 C45.06425,62.72475 44.99275,63.66525 44.99275,64.62225 C44.99275,68.78575 46.29625,72.6495 48.51275,75.8285 L48.51275,67.375 L50.4955,67.375 L50.4955,78.24025 L50.49,78.24025 Z M79.772,52.1455 C78.63625,53.24275 77.98175,54.7635 77.98175,56.375 C77.98175,59.62 80.62175,62.26 83.86675,62.26 C83.952,62.26 84.03725,62.26 84.11975,62.2545 C83.65775,58.443 82.0985,54.96425 79.772,52.1455 Z M45.738,59.24875 C46.78025,61.116 48.719,62.26 50.875,62.26 C54.12,62.26 56.76,59.62 56.76,56.375 C56.76,53.174 54.1915,50.56425 51.00975,50.49 C48.54575,52.866 46.7005,55.87175 45.738,59.24875 Z M17.49,45.76 L27.87125,45.76 C23.0725,41.32975 20.207,35.0295 20.207,28.28925 L20.207,27.5 C20.207,27.23325 20.31425,26.98025 20.504,26.79325 C20.69375,26.60625 20.96875,26.50175 21.21625,26.51 L21.72775,26.51 L22,26.51 C31.00625,26.51 39.5505,23.0725 46.05425,16.83 C46.4365,16.4615 47.0415,16.4615 47.42375,16.83 C52.80825,22 59.543,25.24225 66.9075,26.21025 C67.39975,26.2735 67.76825,26.69425 67.76825,27.192 L67.76825,28.28925 C67.76825,33.74525 65.94225,38.9125 62.58175,43.10625 C65.23825,42.85325 68.002,43.1145 70.50725,43.824 L70.50725,30.25 C70.50725,15.63375 58.61625,3.74 43.99725,3.74 C29.37825,3.74 17.49,15.63375 17.49,30.25 L17.49,45.76 Z M61.875,80.74 C57.53825,80.74 54.01,77.21175 54.01,72.875 C54.01,68.53825 57.53825,65.01 61.875,65.01 C66.21175,65.01 69.74,68.53825 69.74,72.875 C69.74,77.21175 66.21175,80.74 61.875,80.74 Z M61.875,66.99 C58.63,66.99 55.99,69.63 55.99,72.875 C55.99,76.12 58.63,78.76 61.875,78.76 C65.12,78.76 67.76,76.12 67.76,72.875 C67.76,69.63 65.12,66.99 61.875,66.99 Z M75.24,78.375 L73.26,78.375 L73.26,67.375 L75.24275,67.375 L75.24,78.375 L75.24,78.375 Z M72.49,61.875 L70.51,61.875 L70.51,50.875 L72.49275,50.875 L72.49,61.875 L72.49,61.875 Z M64.24,61.875 L62.26,61.875 L62.26,50.875 L64.24275,50.875 L64.24,61.875 L64.24,61.875 Z" id="employee--insights_1_" fill="#FFFFFF" fill-rule="nonzero"></path>
                <rect id="_Transparent_Rectangle" x="0" y="0" width="88" height="88"></rect>
            </g>
        </g>
    </g>
</svg>