<?xml version="1.0" encoding="UTF-8"?>
<svg width="14px" height="14px" viewBox="0 0 14 14" version="1.1" xmlns="http://www.w3.org/2000/svg" xmlns:xlink="http://www.w3.org/1999/xlink">
    <title>icon/social/github/16</title>
    <defs>
        <path d="M8,1.16998519 C4.55855105,1.162972 1.62248888,3.65854414 1.07488872,7.05615423 C0.527288562,10.4537643 2.53060951,13.7454275 5.8,14.82 C6.15,14.87 6.3,14.67 6.3,14.47 L6.3,13.27 C4.35,13.67 3.95,12.32 3.95,12.32 C3.82681317,11.8936026 3.53895645,11.5337817 3.15,11.32 C2.5,10.87 3.2,10.87 3.2,10.87 C3.64042936,10.9257024 4.02918652,11.1848738 4.25,11.57 C4.66779228,12.2798156 5.56542179,12.5425364 6.3,12.17 C6.33435075,11.81047 6.49357229,11.4743356 6.75,11.22 C5.2,11.02 3.55,10.42 3.55,7.77 C3.53618778,7.07118895 3.78611426,6.39281706 4.25,5.87 C4.05260604,5.25925009 4.07025099,4.59932897 4.3,4 C4.3,4 4.9,3.8 6.2,4.7 C6.76979172,4.54002675 7.35820744,4.45596736 7.95,4.45 C8.54179256,4.45596736 9.13020828,4.54002675 9.7,4.7 C11.05,3.82 11.6,4 11.6,4 C11.8825386,4.58063444 11.9007634,5.25495199 11.65,5.85 C12.1218901,6.36799015 12.373035,7.04966904 12.35,7.75 C12.35,10.45 10.7,11.05 9.15,11.2 C9.49861757,11.539455 9.68129782,12.0144237 9.65,12.5 L9.65,14.4 C9.65,14.6 9.8,14.8 10.15,14.75 C13.0436005,13.870131 15.0158525,11.1943746 15.0000949,8.17 C15.0000949,4.30400675 11.8659932,1.16998519 8,1.16998519 Z" id="path-1"></path>
    </defs>
    <g id="Home-Page" stroke="none" stroke-width="1" fill="none" fill-rule="evenodd">
        <g id="Home-page_hi-fi_v2" transform="translate(-1234.000000, -2486.000000)">
            <g id="footer" transform="translate(0.000000, 2460.000000)">
                <g id="icon/social/github/16" transform="translate(1233.000000, 25.000000)">
                    <mask id="mask-2" fill="white">
                        <use xlink:href="#path-1"></use>
                    </mask>
                    <use id="icon-color" fill="#BEBEBE" xlink:href="#path-1"></use>
                </g>
            </g>
        </g>
    </g>
</svg>